# xmcd
#
# Track frame offsets:
#   150
#   14115
#   28859
#   42072
#   55169
#   71556
#   89028
#   106073
#   119667
#   133757
#   149697
#   164475
#   177234
#   190242
#   207639
#   223516
#   236804
#   249548
#   263058
#   277021
#
# Disc length: 3865 seconds
#
# Revision: 0
# Processed by: cddbd v1.5.2PL0 Copyright (c) Steve Scherf et al.
# Submitted via: uFREEDB ActiveX Control 1.5
#
DISCID=430f1714
DTITLE=ney - koxixus
DYEAR=1995
DGENRE=Alternative
TTITLE0=001
TTITLE1=002
TTITLE2=003
TTITLE3=004
TTITLE4=005
TTITLE5=006
TTITLE6=007
TTITLE7=008
TTITLE8=009
TTITLE9=010
TTITLE10=011
TTITLE11=012
TTITLE12=013
TTITLE13=014
TTITLE14=015
TTITLE15=016
TTITLE16=017
TTITLE17=018
TTITLE18=019
TTITLE19=020
EXTD=mato grosso
EXTT0=
EXTT1=
EXTT2=
EXTT3=
EXTT4=
EXTT5=
EXTT6=
EXTT7=
EXTT8=
EXTT9=
EXTT10=
EXTT11=
EXTT12=
EXTT13=
EXTT14=
EXTT15=
EXTT16=
EXTT17=
EXTT18=
EXTT19=
PLAYORDER=
